<svg width="65" height="12" viewBox="0 0 65 12" fill="none" xmlns="http://www.w3.org/2000/svg">
<g clip-path="url(#clip0_29_1670)">
<path d="M4.14381 4.02394L4.40602 3.98648L4.52232 3.74851L6.04393 0.635061C6.13816 0.449523 6.40088 0.462616 6.48031 0.628702L6.48026 0.628725L6.48349 0.635233L8.02977 3.75122L8.14652 3.98648L8.40647 4.02387L11.8239 4.51542C12.0043 4.54457 12.1136 4.78352 11.9443 4.95462L9.48637 7.36573L9.29924 7.5493L9.34378 7.80762L9.92853 11.1991C9.94207 11.2952 9.9013 11.3853 9.81672 11.4462C9.73097 11.5079 9.63449 11.5154 9.55349 11.4737C9.55312 11.4735 9.55274 11.4733 9.55237 11.4731L6.50979 9.85816L6.27628 9.73421L6.04237 9.85742L2.97496 11.4731C2.97477 11.4732 2.97457 11.4733 2.97437 11.4734C2.89326 11.5154 2.79655 11.508 2.71062 11.4462C2.62604 11.3853 2.58526 11.2952 2.59881 11.1991L3.18355 7.80762L3.22809 7.5493L3.04096 7.36573L0.583052 4.95464C0.413824 4.7836 0.522933 4.54474 0.703245 4.51545L4.14381 4.02394Z" stroke="black"/>
<path d="M17.1438 4.02394L17.406 3.98648L17.5223 3.74851L19.0439 0.635061C19.1382 0.449523 19.4009 0.462616 19.4803 0.628702L19.4803 0.628725L19.4835 0.635233L21.0298 3.75122L21.1465 3.98648L21.4065 4.02387L24.8239 4.51542C25.0043 4.54457 25.1136 4.78352 24.9443 4.95462L22.4864 7.36573L22.2992 7.5493L22.3438 7.80762L22.9285 11.1991C22.9421 11.2952 22.9013 11.3853 22.8167 11.4462C22.731 11.5079 22.6345 11.5154 22.5535 11.4737C22.5531 11.4735 22.5527 11.4733 22.5524 11.4731L19.5098 9.85816L19.2763 9.73421L19.0424 9.85742L15.975 11.4731C15.9748 11.4732 15.9746 11.4733 15.9744 11.4734C15.8933 11.5154 15.7965 11.508 15.7106 11.4462C15.626 11.3853 15.5853 11.2952 15.5988 11.1991L16.1836 7.80762L16.2281 7.5493L16.041 7.36573L13.5831 4.95464C13.4138 4.7836 13.5229 4.54474 13.7032 4.51545L17.1438 4.02394Z" stroke="black"/>
<path d="M30.1438 4.02394L30.406 3.98648L30.5223 3.74851L32.0439 0.635061C32.1382 0.449523 32.4009 0.462616 32.4803 0.628702L32.4803 0.628725L32.4835 0.635233L34.0298 3.75122L34.1465 3.98648L34.4065 4.02387L37.8239 4.51542C38.0043 4.54457 38.1136 4.78352 37.9443 4.95462L35.4864 7.36573L35.2992 7.5493L35.3438 7.80762L35.9285 11.1991C35.9421 11.2952 35.9013 11.3853 35.8167 11.4462C35.731 11.5079 35.6345 11.5154 35.5535 11.4737C35.5531 11.4735 35.5527 11.4733 35.5524 11.4731L32.5098 9.85816L32.2763 9.73421L32.0424 9.85742L28.975 11.4731C28.9748 11.4732 28.9746 11.4733 28.9744 11.4734C28.8933 11.5154 28.7965 11.508 28.7106 11.4462C28.626 11.3853 28.5853 11.2952 28.5988 11.1991L29.1836 7.80762L29.2281 7.5493L29.041 7.36573L26.5831 4.95464C26.4138 4.7836 26.5229 4.54474 26.7032 4.51545L30.1438 4.02394Z" stroke="black"/>
<path d="M43.1438 4.02394L43.406 3.98648L43.5223 3.74851L45.0439 0.635061C45.1382 0.449523 45.4009 0.462616 45.4803 0.628702L45.4803 0.628725L45.4835 0.635233L47.0298 3.75122L47.1465 3.98648L47.4065 4.02387L50.8239 4.51542C51.0043 4.54457 51.1136 4.78352 50.9443 4.95462L48.4864 7.36573L48.2992 7.5493L48.3438 7.80762L48.9285 11.1991C48.9421 11.2952 48.9013 11.3853 48.8167 11.4462C48.731 11.5079 48.6345 11.5154 48.5535 11.4737C48.5531 11.4735 48.5527 11.4733 48.5524 11.4731L45.5098 9.85816L45.2763 9.73421L45.0424 9.85742L41.975 11.4731C41.9748 11.4732 41.9746 11.4733 41.9744 11.4734C41.8933 11.5154 41.7965 11.508 41.7106 11.4462C41.626 11.3853 41.5853 11.2952 41.5988 11.1991L42.1836 7.80762L42.2281 7.5493L42.041 7.36573L39.5831 4.95464C39.4138 4.7836 39.5229 4.54474 39.7032 4.51545L43.1438 4.02394Z" stroke="black"/>
<path d="M56.1438 4.02394L56.406 3.98648L56.5223 3.74851L58.0439 0.635061C58.1382 0.449523 58.4009 0.462616 58.4803 0.628702L58.4803 0.628725L58.4835 0.635233L60.0298 3.75122L60.1465 3.98648L60.4065 4.02387L63.8239 4.51542C64.0043 4.54457 64.1136 4.78352 63.9443 4.95462L61.4864 7.36573L61.2992 7.5493L61.3438 7.80762L61.9285 11.1991C61.9421 11.2952 61.9013 11.3853 61.8167 11.4462C61.731 11.5079 61.6345 11.5154 61.5535 11.4737C61.5531 11.4735 61.5527 11.4733 61.5524 11.4731L58.5098 9.85816L58.2763 9.73421L58.0424 9.85742L54.975 11.4731C54.9748 11.4732 54.9746 11.4733 54.9744 11.4734C54.8933 11.5154 54.7965 11.508 54.7106 11.4462C54.626 11.3853 54.5853 11.2952 54.5988 11.1991L55.1836 7.80762L55.2281 7.5493L55.041 7.36573L52.5831 4.95464C52.4138 4.7836 52.5229 4.54474 52.7032 4.51545L56.1438 4.02394Z" stroke="black"/>
</g>
<defs>
<clipPath id="clip0_29_1670">
<rect width="65" height="12" fill="white"/>
</clipPath>
</defs>
</svg>
