<?xml version="1.0" encoding="utf-8"?>
<!-- Generator: Adobe Illustrator 26.2.1, SVG Export Plug-In . SVG Version: 6.00 Build 0)  -->
<svg version="1.1" id="Camada_1" xmlns="http://www.w3.org/2000/svg" xmlns:xlink="http://www.w3.org/1999/xlink" x="0px" y="0px"
	 viewBox="0 0 20 20" style="enable-background:new 0 0 20 20;" xml:space="preserve">
<g>
	<path d="M0,9.7c0.2-0.5,0.5-0.9,1-1c0.1,0,0.2,0,0.3,0c1.2,0,2.3,0,3.5,0c0.1,0,0.1,0,0.2,0c0,0.1,0,0.1-0.1,0.2
		C4.7,9.1,4.6,9.4,4.5,9.7C4.5,10,4.4,10,4.2,10c-0.9,0-1.8,0-2.6,0c-0.2,0-0.2,0.1-0.2,0.2c0,0.9,0,1.9,0,2.8c0,0.3,0,0.3,0.3,0.3
		c3.6,0,7.2,0,10.8,0c0.4,0,0.7,0.1,1.1,0.1c0,0,0,0,0.1,0C14,13.5,14,13.5,14,14c0,0.9,0,1.8,0,2.6c0,0.8-0.6,1.4-1.4,1.4
		c-3.7,0-7.5,0-11.2,0c-0.7,0-1.1-0.3-1.4-1.1C0,14.5,0,12.1,0,9.7z M7,16.6c1.8,0,3.6,0,5.4,0c0.2,0,0.3,0,0.3-0.3
		c0-0.3,0-0.5,0-0.8c0-0.2,0-0.3-0.2-0.3c-0.8,0-1.7,0-2.5,0c-2.8,0-5.5,0-8.3,0c-0.2,0-0.3,0-0.2,0.2c0,0.3,0,0.5,0,0.8
		c0,0.3,0,0.3,0.3,0.3C3.4,16.6,5.2,16.6,7,16.6z"/>
	<path d="M11.7,8.6C10.8,8,10.3,7.2,10,6.2C9.9,6.3,9.9,6.4,9.8,6.5c-0.4,0.6-1,1-1.5,1.4C8.1,8,7.9,8,7.8,8c-1,0-1.9,0-2.9,0
		C4.7,8,4.7,8,4.7,7.7c0-0.3,0.1-0.6,0.3-0.8c0.9-1.4,1.9-2.7,3.1-4C8.6,2.3,9.3,2,10.1,2c0.5,0,0.9,0.2,1.4,0.3
		c1.4,0.4,2.8,1,4.2,1.5c1.1,0.4,2.2,0.7,3.3,0.8c0.6,0.1,1,0.5,1,1c0,1.5,0,3,0,4.6c0,0.4-0.1,0.7-0.4,0.9
		c-0.4,0.3-0.9,0.6-1.4,0.8c-1.3,0.5-2.6,0.8-4,0.8c-0.7,0-1.3-0.2-1.9-0.4c-0.5-0.2-1-0.3-1.5-0.3c-1,0-2.1,0-3.1,0
		c-0.4,0-0.9-0.1-1.3-0.3c-0.6-0.2-0.9-0.7-1-1.3c0-0.7,0.3-1.2,0.9-1.5c0.4-0.2,0.9-0.3,1.4-0.3c1.3,0,2.5,0,3.8,0
		C11.5,8.7,11.6,8.7,11.7,8.6z"/>
</g>
</svg>
