<?xml version="1.0" encoding="utf-8"?>
<!-- Generator: Adobe Illustrator 26.2.1, SVG Export Plug-In . SVG Version: 6.00 Build 0)  -->
<svg version="1.1" id="Camada_1" xmlns="http://www.w3.org/2000/svg" xmlns:xlink="http://www.w3.org/1999/xlink" x="0px" y="0px"
	 viewBox="0 0 20 20" style="enable-background:new 0 0 20 20;" xml:space="preserve">
<g>
	<path d="M0,15.6c0.2-1,0.9-1.6,1.8-1.9c0.8-0.3,1.6-0.5,2.3-0.8c0.2-0.1,0.5-0.2,0.7-0.4c0.2-0.2,0.4-0.6,0.3-0.9
		c0-0.1-0.1-0.1-0.2-0.1c-0.8,0-1.5-0.1-2.3-0.4c-0.5-0.2-0.9-0.4-1.3-0.6c-0.1-0.1-0.1-0.1,0-0.2C2.3,9.6,2.8,8.7,3,7.7
		C3.2,6.8,3.3,6,3.3,5.1c0.1-0.6,0.1-1.3,0.3-1.9C3.9,1.8,4.8,1,6.2,0.7c0.6-0.1,1.1-0.1,1.7,0c0.4,0.1,0.7,0.2,0.9,0.5
		C9,1.3,9.1,1.3,9.2,1.3c0.7,0,1.3,0.3,1.8,0.8c0.2,0.3,0.1,0.6-0.3,0.7c-0.2,0-0.5,0.1-0.7,0.2C8.9,3.4,8.3,4.2,8,5.4
		c-0.1,0.5-0.1,1-0.1,1.6c0,0.1,0,0.2-0.1,0.4C7.4,7.6,7.3,8,7.3,8.4c0,0.8,0.1,1.6,0.5,2.3c0.2,0.3,0.4,0.5,0.7,0.7
		c0.1,0,0.1,0.1,0.2,0.2c0.2,0.6,0.6,1.2,1,1.6c0.2,0.2,0.2,0.4-0.1,0.5c-0.7,0.3-1.4,0.5-2.1,0.8C7,14.8,6.5,15,6,15.3
		c-0.7,0.5-1.1,1.1-1.3,1.9c0,0.2-0.1,0.2-0.3,0.2c-1.1,0-2.3,0-3.4,0c-0.5,0-0.9-0.2-1.1-0.7C0,16.4,0,16,0,15.6z"/>
	<path d="M12.9,19.4c-2,0-4.1,0-6.1,0c-0.5,0-1.1-0.4-1-1c0-0.3,0-0.5,0-0.8C5.9,16.8,6.3,16.3,7,16c0.5-0.3,1-0.4,1.6-0.6
		c0.5-0.2,1.1-0.3,1.6-0.6c0,0,0.1,0,0.1,0c0.5-0.2,0.8-0.5,0.8-1.2c0-0.4-0.1-0.7-0.4-1c-0.5-0.5-0.9-1.1-1-1.8
		c0-0.1,0-0.2-0.1-0.2c-0.5,0-0.7-0.3-0.8-0.7C8.5,9.5,8.4,9,8.4,8.6c0-0.4,0.2-0.6,0.5-0.6c0.1,0,0.2-0.1,0.2-0.2
		C9,7,9,6.2,9.1,5.5C9.3,4.6,10,4,10.9,3.9c0.2,0,0.3,0,0.5,0c0.1,0,0.1,0,0.2-0.1c0.1-0.4,0.3-0.5,0.7-0.5c1.2,0,2.3,0.3,3.2,1
		c0.8,0.6,1.2,1.5,1.2,2.5c0,0.3,0,0.6-0.1,0.9c0,0.2,0,0.2,0.2,0.3c0.4,0.1,0.6,0.3,0.6,0.7c0,0.5-0.1,1-0.3,1.4
		c-0.1,0.4-0.4,0.6-0.8,0.5c-0.2,0-0.2,0.1-0.3,0.2c-0.1,0.7-0.5,1.4-1,1.9c-0.1,0.1-0.2,0.2-0.2,0.4c0,0.3,0,0.6,0,0.8
		c0,0.3,0.1,0.4,0.3,0.6c0.5,0.3,1.1,0.5,1.7,0.7c0.6,0.2,1.2,0.4,1.8,0.6c0.9,0.4,1.4,1.1,1.4,2.2c0,0.1,0,0.3,0,0.4
		c0,0.5-0.4,0.9-0.9,0.9c-1.8,0-3.7,0-5.5,0C13.3,19.4,13.1,19.4,12.9,19.4C12.9,19.4,12.9,19.4,12.9,19.4z"/>
</g>
</svg>
