<svg width="12" height="12" viewBox="0 0 12 12" fill="none" xmlns="http://www.w3.org/2000/svg">
<path d="M8.8125 1C8.16134 1 7.56434 1.20634 7.03812 1.61331C6.53362 2.00348 6.19774 2.50042 6 2.86178C5.80226 2.5004 5.46638 2.00348 4.96188 1.61331C4.43566 1.20634 3.83866 1 3.1875 1C1.37034 1 0 2.48634 0 4.45736C0 6.58675 1.7096 8.04365 4.29771 10.2492C4.73721 10.6237 5.23538 11.0483 5.75316 11.5011C5.82141 11.5608 5.90906 11.5938 6 11.5938C6.09094 11.5938 6.17859 11.5608 6.24684 11.5011C6.76467 11.0482 7.26281 10.6237 7.70257 10.249C10.2904 8.04365 12 6.58675 12 4.45736C12 2.48634 10.6297 1 8.8125 1Z" fill="black"/>
</svg>
