<svg width="12" height="13" viewBox="0 0 12 13" fill="none" xmlns="http://www.w3.org/2000/svg">
<path d="M6 0.5C6.79565 0.5 7.55871 0.81607 8.12132 1.37868C8.68393 1.94129 9 2.70435 9 3.5C9 4.29565 8.68393 5.05871 8.12132 5.62132C7.55871 6.18393 6.79565 6.5 6 6.5C5.20435 6.5 4.44129 6.18393 3.87868 5.62132C3.31607 5.05871 3 4.29565 3 3.5C3 2.70435 3.31607 1.94129 3.87868 1.37868C4.44129 0.81607 5.20435 0.5 6 0.5ZM6 8C9.315 8 12 9.3425 12 11V12.5H0V11C0 9.3425 2.685 8 6 8Z" fill="white"/>
</svg>
