<svg width="18" height="18" viewBox="0 0 18 18" fill="none" xmlns="http://www.w3.org/2000/svg">
<path fill-rule="evenodd" clip-rule="evenodd" d="M16.9389 18C17.5603 18 18 17.5266 18 16.9206C18 16.6365 17.9044 16.3619 17.6941 16.1631L13.1917 11.6938C14.1381 10.4629 14.7021 8.93845 14.7021 7.28143C14.7021 3.27617 11.3946 0 7.35104 0C3.31705 0 0 3.2667 0 7.28143C0 11.2867 3.30749 14.5629 7.35104 14.5629C8.94742 14.5629 10.4195 14.0516 11.624 13.1994L16.1551 17.6875C16.3654 17.8958 16.6426 18 16.9389 18ZM7.35104 12.9911C4.19649 12.9911 1.58683 10.4061 1.58683 7.28143C1.58683 4.15676 4.19649 1.5718 7.35104 1.5718C10.5056 1.5718 13.1152 4.15676 13.1152 7.28143C13.1152 10.4061 10.5056 12.9911 7.35104 12.9911Z" fill="black"/>
</svg>
