<svg width="20" height="21" viewBox="0 0 20 21" fill="none" xmlns="http://www.w3.org/2000/svg">
<path d="M17.3651 4.61663C16.9395 4.1908 16.4342 3.853 15.8779 3.62253C15.3217 3.39206 14.7255 3.27344 14.1235 3.27344C13.5214 3.27344 12.9252 3.39206 12.369 3.62253C11.8128 3.853 11.3074 4.1908 10.8818 4.61663L9.99847 5.49996L9.11514 4.61663C8.25539 3.75688 7.08933 3.27388 5.87347 3.27388C4.65761 3.27388 3.49155 3.75688 2.6318 4.61663C1.77206 5.47637 1.28906 6.64243 1.28906 7.85829C1.28906 9.07415 1.77206 10.2402 2.6318 11.1L3.51514 11.9833L9.99847 18.4666L16.4818 11.9833L17.3651 11.1C17.791 10.6743 18.1288 10.169 18.3592 9.61275C18.5897 9.05654 18.7083 8.46037 18.7083 7.85829C18.7083 7.25622 18.5897 6.66005 18.3592 6.10383C18.1288 5.54761 17.791 5.04226 17.3651 4.61663Z" stroke="black" stroke-width="2" stroke-linecap="round" stroke-linejoin="round"/>
</svg>
